Afterwards (2008) 1080P X264 MKV AC3+DTS Eng-NLSubs

PLOT

Nathan, a brilliant New York lawyer who leads a life of professional success, 
but his private life is pretty dismal since he divorced Claire his only love.
Until he meets Doctor Kay, a mysterious doctor who introduces himself as a "Messenger." 
He claims that he can sense when certain people are about to die...

MM:    http://www.moviemeter.nl/film/45558

IMDB:    http://www.imdb.com/title/tt0940580/

INFO

Source......: 1080P BluRay 
FRAME RATE..: 23.976Fps 
VIDEO CODEC.: X264 9577K 
AUDIO 1.....: DTS 1536k
AUDIO 2.....: AC3 640K 
RESOLUTION..: 1920x824 
RUNTIME.....: 107MINS 
GENERE......: Crime 
LANGUAGE....: English 
SUBTITLES...: English & Dutch

Thanks To Bradje

Enjoy This Nice Release

PLAYER INFO

   Video #1
      ID : 1
      Format : AVC
      Format/Info : Advanced Video Codec
      Format profile : High@L4.1
      Format settings, CABAC : Yes
      Format settings, ReFrames : 5 frames
      Muxing mode : Container profile=Unknown@4.1
      Codec ID : V_MPEG4/ISO/AVC
      Duration : 1h 47mn
      Bit rate : 8 804 Kbps
      Nominal bit rate : 9 029 Kbps
      Width : 1 920 pixels
      Height : 824 pixels
      Display aspect ratio : 2.35:1
      Frame rate : 24.000 fps
      Resolution : 24 bits
      Colorimetry : 4:2:0
      Scan type : Progressive
      Bits/(Pixel*Frame) : 0.232
      Stream size : 6.64 GiB (79%)
      Title : Video
      Writing library : x264 core 79 r1352 d487de4
      Encoding settings : cabac=1 / ref=5 / deblock=1:0:0 / analyse=0x3:0x113 / 
me=umh / subme=7 / psy=1 / psy_rd=1.0:0.2 / mixed_ref=1 / me_range=16 / chroma_me=1 / 
trellis=1 / 8x8dct=1 / cqm=0 / deadzone=21,11 / chroma_qp_offset=-3 / threads=12 / nr=0 / 
decimate=1 / mbaff=0 / constrained_intra=0 / bframes=3 / b_pyramid=0 / b_adapt=1 / b_bias=0 / 
direct=1 / wpredb=1 / wpredp=0 / keyint=250 / keyint_min=25 / scenecut=40 / rc_lookahead=40 / 
rc=2pass / mbtree=1 / bitrate=9029 / ratetol=1.0 / qcomp=0.60 / qpmin=10 / qpmax=51 / 
qpstep=4 / cplxblur=20.0 / qblur=0.5 / ip_ratio=1.40 / aq=1:1.00
   Audio #2
      ID : 2
      Format : AC-3
      Format/Info : Audio Coding 3
      Codec ID : A_AC3
      Duration : 1h 47mn
      Bit rate mode : Constant
      Bit rate : 640 Kbps
      Channel(s) : 6 channels
      Channel positions : Front: L C R, Surround: L R, LFE
      Sampling rate : 48.0 KHz
      Stream size : 494 MiB (6%)
      Title : AC3
   Audio #3
      ID : 3
      Format : DTS
      Format/Info : Digital Theater Systems
      Codec ID : A_DTS
      Duration : 1h 47mn
      Bit rate mode : Constant
      Bit rate : 1 510 Kbps
      Channel(s) : 6 channels
      Channel positions : Front: L C R, Surround: L R, LFE
      Sampling rate : 48.0 KHz
      Resolution : 24 bits
      Stream size : 1.14 GiB (14%)
      Title : DTS
   Text #4
      ID : 4
      Format : UTF-8
      Codec ID : S_TEXT/UTF8
      Codec ID/Info : UTF-8 Plain Text
      Title : Subtitles
      Language : Dutch
   Text #5
      ID : 5
      Format : UTF-8
      Codec ID : S_TEXT/UTF8
      Codec ID/Info : UTF-8 Plain Text
      Title : Subtitles
